<svg width="128" height="128" viewBox="0 0 128 128" fill="none" xmlns="http://www.w3.org/2000/svg">
<mask id="mask0" mask-type="alpha" maskUnits="userSpaceOnUse" x="0" y="0" width="128" height="128">
<circle cx="64" cy="64" r="61" transform="rotate(-90 64 64)" fill="#CD2626" stroke="black" stroke-width="6"/>
</mask>
<g mask="url(#mask0)">
<circle cx="64" cy="64" r="61.2443" stroke="black" stroke-width="6"/>
<path d="M98.374 64C98.374 81.3162 94.3645 96.8454 88.0361 107.941C81.6586 119.123 73.3069 125.244 64.7328 125.244C56.1587 125.244 47.807 119.123 41.4295 107.941C35.1011 96.8454 31.0916 81.3162 31.0916 64C31.0916 46.6838 35.1011 31.1546 41.4295 20.0587C47.807 8.8769 56.1587 2.75572 64.7328 2.75572C73.3069 2.75572 81.6586 8.8769 88.0361 20.0587C94.3645 31.1546 98.374 46.6838 98.374 64Z" stroke="black" stroke-width="6"/>
<line x1="64.5573" y1="-2.44275" x2="64.5573" y2="126.046" stroke="black" stroke-width="6"/>
<circle cx="64" cy="63.9998" r="61.2443" transform="rotate(-90 64 63.9998)" stroke="black" stroke-width="6"/>
<line x1="-0.244263" y1="62.7098" x2="128.244" y2="62.7098" stroke="black" stroke-width="6"/>
<path d="M64.7328 -29.4885C82.049 -29.4885 97.5782 -25.4791 108.674 -19.1506C119.856 -12.7732 125.977 -4.42145 125.977 4.15267C125.977 12.7268 119.856 21.0785 108.674 27.456C97.5782 33.7844 82.049 37.7939 64.7328 37.7939C47.4167 37.7939 31.8874 33.7844 20.7916 27.456C9.60974 21.0785 3.48856 12.7268 3.48856 4.15267C3.48856 -4.42145 9.60974 -12.7732 20.7916 -19.1506C31.8874 -25.4791 47.4167 -29.4885 64.7328 -29.4885Z" stroke="black" stroke-width="6"/>
<path d="M68.1527 90.2061C85.4688 90.2061 100.998 94.2156 112.094 100.544C123.276 106.921 129.397 115.273 129.397 123.847C129.397 132.421 123.276 140.773 112.094 147.151C100.998 153.479 85.4688 157.489 68.1527 157.489C50.8365 157.489 35.3073 153.479 24.2114 147.151C13.0296 140.773 6.90842 132.421 6.90842 123.847C6.90842 115.273 13.0296 106.921 24.2114 100.544C35.3073 94.2156 50.8365 90.2061 68.1527 90.2061Z" stroke="black" stroke-width="6"/>
</g>
<path d="M91.9577 73.1099C91.9577 78.778 82.9341 75.6248 84.9695 82.0637C80.6806 83.5741 73.0439 79.4409 64.3374 79.4409C55.6309 79.4409 47.9942 83.5741 43.7053 82.0637C43.7053 73.1099 35.7187 78.778 35.7187 73.1099C35.7187 56.9643 50.921 38.4757 64.3374 38.4757C77.7538 38.4757 91.9577 56.9643 91.9577 73.1099Z" fill="white"/>
<path d="M51.5691 62.4551C55.1881 62.4551 58.1832 60.1649 60.1752 57.0504C62.1817 53.9133 63.3573 49.7009 63.3573 45.1513C63.3573 40.6018 62.1817 36.3894 60.1752 33.2523C58.1832 30.1378 55.1881 27.8475 51.5691 27.8475C47.95 27.8475 44.9549 30.1378 42.9629 33.2523C40.9564 36.3894 39.7809 40.6018 39.7809 45.1513C39.7809 49.7009 40.9564 53.9133 42.9629 57.0504C44.9549 60.1649 47.95 62.4551 51.5691 62.4551Z" fill="white" stroke="white" stroke-width="4"/>
<path d="M76.1172 62.4551C79.7363 62.4551 82.7314 60.1649 84.7234 57.0504C86.7299 53.9133 87.9055 49.7009 87.9055 45.1513C87.9055 40.6018 86.7299 36.3894 84.7234 33.2523C82.7314 30.1378 79.7363 27.8475 76.1172 27.8475C72.4982 27.8475 69.5031 30.1378 67.5111 33.2523C65.5046 36.3894 64.329 40.6018 64.329 45.1513C64.329 49.7009 65.5046 53.9133 67.5111 57.0504C69.5031 60.1649 72.4982 62.4551 76.1172 62.4551Z" fill="white" stroke="white" stroke-width="4"/>
<path d="M89.6335 76.0742C86.6829 74.7292 85.1194 71.7608 84.6637 68.5535C84.2042 65.3197 84.8001 61.5468 86.4434 57.9419C88.0867 54.337 90.5439 51.4125 93.2863 49.6383C96.0062 47.8787 99.2724 47.112 102.223 48.457C105.173 49.802 106.737 52.7704 107.193 55.9776C107.652 59.2114 107.056 62.9844 105.413 66.5893C103.77 70.1941 101.312 73.1186 98.5701 74.8928C95.8502 76.6525 92.584 77.4192 89.6335 76.0742Z" fill="white" stroke="white" stroke-width="4"/>
<path d="M38.3665 76.0742C41.3171 74.7292 42.8806 71.7608 43.3363 68.5535C43.7958 65.3197 43.1999 61.5468 41.5566 57.9419C39.9133 54.337 37.4561 51.4125 34.7137 49.6383C31.9938 47.8787 28.7276 47.112 25.7771 48.457C22.8265 49.802 21.263 52.7704 20.8073 55.9776C20.3479 59.2114 20.9437 62.9844 22.587 66.5893C24.2303 70.1941 26.6875 73.1186 29.4299 74.8928C32.1498 76.6525 35.416 77.4192 38.3665 76.0742Z" fill="white" stroke="white" stroke-width="4"/>
<path d="M83.285 100.273C85.4844 99.4987 90.7021 96.885 90.7021 90.5949C90.7021 83.0297 87.3988 75.0711 82.6337 69.0189C77.9088 63.0175 71.3842 58.4551 64.666 58.4551C57.9692 58.4551 51.233 62.9941 46.2924 68.9834C41.3118 75.0213 37.7611 82.9913 37.7611 90.5949C37.7611 93.8235 39.4053 96.11 41.1957 97.6079C42.9514 99.0767 44.9514 99.8874 46.0469 100.273C47.4043 100.751 48.8774 100.737 50.2647 100.57C51.663 100.402 53.1898 100.047 54.7119 99.6837C54.8448 99.652 54.978 99.62 55.1115 99.5881C58.1215 98.8671 61.306 98.1044 64.666 98.1044C68.026 98.1044 71.2105 98.8671 74.2205 99.5881C74.354 99.6201 74.4872 99.652 74.6201 99.6837C76.1422 100.047 77.669 100.402 79.0672 100.57C80.4545 100.737 81.9277 100.751 83.285 100.273Z" fill="white" stroke="white" stroke-width="4"/>
<path d="M91.9577 73.1099C91.9577 78.778 82.9341 75.6248 84.9695 82.0637C80.6806 83.5741 73.0439 79.4409 64.3374 79.4409C55.6309 79.4409 47.9942 83.5741 43.7053 82.0637C43.7053 73.1099 35.7187 78.778 35.7187 73.1099C35.7187 56.9643 50.921 38.4757 64.3374 38.4757C77.7538 38.4757 91.9577 56.9643 91.9577 73.1099Z" fill="white"/>
<ellipse cx="51.5691" cy="45.1513" rx="9.78821" ry="15.3038" fill="black"/>
<ellipse cx="76.1172" cy="45.1513" rx="9.78821" ry="15.3038" fill="black"/>
<ellipse rx="8.42379" ry="13.1757" transform="matrix(-0.909917 -0.414791 -0.414791 0.909917 95.9282 62.2656)" fill="black"/>
<ellipse cx="32.0718" cy="62.2656" rx="8.42379" ry="13.1757" transform="rotate(-24.5061 32.0718 62.2656)" fill="black"/>
<path d="M88.7021 90.5949C88.7021 95.5275 84.6397 97.6758 82.6207 98.3868C78.8884 99.7012 72.2427 96.1044 64.666 96.1044C57.0893 96.1044 50.4436 99.7012 46.7113 98.3868C44.6922 97.6758 39.7611 95.5274 39.7611 90.5949C39.7611 76.5445 52.9906 60.4551 64.666 60.4551C76.3414 60.4551 88.7021 76.5445 88.7021 90.5949Z" fill="black"/>
</svg>
